/* XPM */
static char *_516_2486f70de6831bffecfb8bb75fb0c4606a392f750eead8cd06527aafbf296212[] = {
/* columns rows colors chars-per-pixel */
"64 64 2 1 ",
"  c black",
". c white",
/* pixels */
"................................................................",
"................................................................",
"................................................................",
"................................................................",
"................................................................",
"................................................................",
"................................................................",
"................................................................",
"........                                                ........",
"........                                                ........",
"........                                                ........",
"........                                                ........",
"........                                                ........",
"........                                                ........",
"........                                                ........",
"........                                                ........",
"........        ................................        ........",
"........        ................................        ........",
"........        ................................        ........",
"........        ................................        ........",
"........        ................................        ........",
"........        ................................        ........",
"........        ................................        ........",
"........        ................................        ........",
"........        ................................        ........",
"........        ................................        ........",
"........        ................................        ........",
"........        ................................        ........",
"........                ........................        ........",
"........                ........................        ........",
"........                ........................        ........",
"........                ........................        ........",
"........                ........................        ........",
"........                ........................        ........",
"........                ........................        ........",
"........                ........................        ........",
"........        ................................        ........",
"........        ................................        ........",
"........        ................................        ........",
"........        ................................        ........",
"........        ................................        ........",
"........        ................................        ........",
"........        ................................        ........",
"........        ................................        ........",
"........        ................................        ........",
"........        ................................        ........",
"........        ................................        ........",
"........        ................................        ........",
"........                                                ........",
"........                                                ........",
"........                                                ........",
"........                                                ........",
"........                                                ........",
"........                                                ........",
"........                                                ........",
"........                                                ........",
"................................................................",
"................................................................",
"................................................................",
"................................................................",
"................................................................",
"................................................................",
"................................................................",
"................................................................"
};
