/* XPM */
static char *_4904_305a3c7db546c336302dc76b92f64213c9577f4aa2cfcef927b1e774b12db34c[] = {
/* columns rows colors chars-per-pixel */
"64 64 2 1 ",
"  c black",
". c white",
/* pixels */
"                                        ........                ",
"                                        ........                ",
"                                        ........                ",
"                                        ........                ",
"                                        ........                ",
"                                        ........                ",
"                                        ........                ",
"                                        ........                ",
"                                ........                        ",
"                                ........                        ",
"                                ........                        ",
"                                ........                        ",
"                                ........                        ",
"                                ........                        ",
"                                ........                        ",
"                                ........                        ",
"........        ................................                ",
"........        ................................                ",
"........        ................................                ",
"........        ................................                ",
"........        ................................                ",
"........        ................................                ",
"........        ................................                ",
"........        ................................                ",
"........                                ........                ",
"........                                ........                ",
"........                                ........                ",
"........                                ........                ",
"........                                ........                ",
"........                                ........                ",
"........                                ........                ",
"........                                ........                ",
"........        ........        ................                ",
"........        ........        ................                ",
"........        ........        ................                ",
"........        ........        ................                ",
"........        ........        ................                ",
"........        ........        ................                ",
"........        ........        ................                ",
"........        ........        ................                ",
"........................................        ................",
"........................................        ................",
"........................................        ................",
"........................................        ................",
"........................................        ................",
"........................................        ................",
"........................................        ................",
"........................................        ................",
"........        ........................        ................",
"........        ........................        ................",
"........        ........................        ................",
"........        ........................        ................",
"........        ........................        ................",
"........        ........................        ................",
"........        ........................        ................",
"........        ........................        ................",
"                ........                ........                ",
"                ........                ........                ",
"                ........                ........                ",
"                ........                ........                ",
"                ........                ........                ",
"                ........                ........                ",
"                ........                ........                ",
"                ........                ........                "
};
