/* XPM */
static char *a955ee17c7c04a749530975320765593aCkudABU2xIbxCBR[] = {
/* columns rows colors chars-per-pixel */
"64 64 2 1 ",
"  c black",
". c white",
/* pixels */
"                ................................        ........",
"                ................................        ........",
"                ................................        ........",
"                ................................        ........",
"                ................................        ........",
"                ................................        ........",
"                ................................        ........",
"                ................................        ........",
"                ........        ........                ........",
"                ........        ........                ........",
"                ........        ........                ........",
"                ........        ........                ........",
"                ........        ........                ........",
"                ........        ........                ........",
"                ........        ........                ........",
"                ........        ........                ........",
"                ................................        ........",
"                ................................        ........",
"                ................................        ........",
"                ................................        ........",
"                ................................        ........",
"                ................................        ........",
"                ................................        ........",
"                ................................        ........",
"        ........        ........        ........        ........",
"        ........        ........        ........        ........",
"        ........        ........        ........        ........",
"        ........        ........        ........        ........",
"        ........        ........        ........        ........",
"        ........        ........        ........        ........",
"        ........        ........        ........        ........",
"        ........        ........        ........        ........",
"........                                        ................",
"........                                        ................",
"........                                        ................",
"........                                        ................",
"........                                        ................",
"........                                        ................",
"........                                        ................",
"........                                        ................",
"................        ................                ........",
"................        ................                ........",
"................        ................                ........",
"................        ................                ........",
"................        ................                ........",
"................        ................                ........",
"................        ................                ........",
"................        ................                ........",
"                ................................                ",
"                ................................                ",
"                ................................                ",
"                ................................                ",
"                ................................                ",
"                ................................                ",
"                ................................                ",
"                ................................                ",
"                ........                ........                ",
"                ........                ........                ",
"                ........                ........                ",
"                ........                ........                ",
"                ........                ........                ",
"                ........                ........                ",
"                ........                ........                ",
"                ........                ........                "
};
