/* XPM */
static char *_7c0207c264e4098bba432216362492eYBzI5kPk38nNz0ht[] = {
/* columns rows colors chars-per-pixel */
"64 64 2 1 ",
"  c black",
". c white",
/* pixels */
"                ................................        ........",
"                ................................        ........",
"                ................................        ........",
"                ................................        ........",
"                ................................        ........",
"                ................................        ........",
"                ................................        ........",
"                ................................        ........",
"                ........        ........                ........",
"                ........        ........                ........",
"                ........        ........                ........",
"                ........        ........                ........",
"                ........        ........                ........",
"                ........        ........                ........",
"                ........        ........                ........",
"                ........        ........                ........",
"        ........................................        ........",
"        ........................................        ........",
"        ........................................        ........",
"        ........................................        ........",
"        ........................................        ........",
"        ........................................        ........",
"        ........................................        ........",
"        ........................................        ........",
"........                ........        ........................",
"........                ........        ........................",
"........                ........        ........................",
"........                ........        ........................",
"........                ........        ........................",
"........                ........        ........................",
"........                ........        ........................",
"........                ........        ........................",
"................                                ................",
"................                                ................",
"................                                ................",
"................                                ................",
"................                                ................",
"................                                ................",
"................                                ................",
"................                                ................",
"................        ................                        ",
"................        ................                        ",
"................        ................                        ",
"................        ................                        ",
"................        ................                        ",
"................        ................                        ",
"................        ................                        ",
"................        ................                        ",
"                ................................                ",
"                ................................                ",
"                ................................                ",
"                ................................                ",
"                ................................                ",
"                ................................                ",
"                ................................                ",
"                ................................                ",
"                ........                ........                ",
"                ........                ........                ",
"                ........                ........                ",
"                ........                ........                ",
"                ........                ........                ",
"                ........                ........                ",
"                ........                ........                ",
"                ........                ........                "
};
