/* XPM */
static char *_45618eadcee431daa13724f12d619faETCuTwvI49rrjPDB[] = {
/* columns rows colors chars-per-pixel */
"64 64 2 1 ",
"  c black",
". c white",
/* pixels */
"                ................................        ........",
"                ................................        ........",
"                ................................        ........",
"                ................................        ........",
"                ................................        ........",
"                ................................        ........",
"                ................................        ........",
"                ................................        ........",
"                ........        ........                ........",
"                ........        ........                ........",
"                ........        ........                ........",
"                ........        ........                ........",
"                ........        ........                ........",
"                ........        ........                ........",
"                ........        ........                ........",
"                ........        ........                ........",
"        ........................................        ........",
"        ........................................        ........",
"        ........................................        ........",
"        ........................................        ........",
"        ........................................        ........",
"        ........................................        ........",
"        ........................................        ........",
"        ........................................        ........",
"........                ........        ........................",
"........                ........        ........................",
"........                ........        ........................",
"........                ........        ........................",
"........                ........        ........................",
"........                ........        ........................",
"........                ........        ........................",
"........                ........        ........................",
"................        ................                ........",
"................        ................                ........",
"................        ................                ........",
"................        ................                ........",
"................        ................                ........",
"................        ................                ........",
"................        ................                ........",
"................        ................                ........",
"                ........................                        ",
"                ........................                        ",
"                ................................                ",
"                ................................                ",
"                ................................                ",
"                ................................                ",
"                ................................                ",
"                ................................                ",
"                ........                ........                ",
"                ........                ........                ",
"                ........                ........                ",
"                ........                ........                ",
"                ........                ........                ",
"                ........                ........                ",
"                ........                ........                ",
"                ........                ........                ",
"                ........                ........                ",
"                ........                ........                ",
"                ........                ........                ",
"                ........                ........                ",
"                ........                ........                ",
"                ........                ........                ",
"                ........                ........                ",
"                ........                ........                "
};
