/* XPM */
static char *_4231f8c918a4615b3bc9e0845f4c67cPDDPQqYZfDLU2Xn3[] = {
/* columns rows colors chars-per-pixel */
"64 64 2 1 ",
"  c black",
". c white",
/* pixels */
"                ................................        ........",
"                ................................        ........",
"                ................................        ........",
"                ................................        ........",
"                ................................        ........",
"                ................................        ........",
"                ................................        ........",
"                ................................        ........",
"                ........        ........                ........",
"                ........        ........                ........",
"                ........        ........                ........",
"                ........        ........                ........",
"                ........        ........                ........",
"                ........        ........                ........",
"                ........        ........                ........",
"                ........        ........                ........",
"                ................................        ........",
"                ................................        ........",
"                ................................        ........",
"                ................................        ........",
"                ................................        ........",
"                ................................        ........",
"                ................................        ........",
"                ................................        ........",
"        ........        ........        ........................",
"        ........        ........        ........................",
"        ........        ........        ........................",
"        ........        ........        ........................",
"        ........        ........        ........................",
"        ........        ........        ........................",
"        ........        ........        ........................",
"        ........        ........        ........................",
"................        ................                ........",
"................        ................                ........",
"................        ................                ........",
"................        ................                ........",
"................        ................                ........",
"................        ................                ........",
"................        ................                ........",
"................        ................                ........",
"........................................                ........",
"........................................                ........",
"................................................        ........",
"................................................        ........",
"................................................        ........",
"................................................        ........",
"................................................        ........",
"................................................        ........",
"                ........                ........                ",
"                ........                ........                ",
"                ........                ........                ",
"                ........                ........                ",
"                ........                ........                ",
"                ........                ........                ",
"                ........                ........                ",
"                ........                ........                ",
"                ........                ........                ",
"                ........                ........                ",
"                ........                ........                ",
"                ........                ........                ",
"                ........                ........                ",
"                ........                ........                ",
"                ........                ........                ",
"                ........                ........                "
};
