/* XPM */
static char *_3d0170c13d54ffbfb5759845551d376hiH4snogxqJdw38p[] = {
/* columns rows colors chars-per-pixel */
"64 64 2 1 ",
"  c black",
". c white",
/* pixels */
"                ................................        ........",
"                ................................        ........",
"                ................................        ........",
"                ................................        ........",
"                ................................        ........",
"                ................................        ........",
"                ................................        ........",
"                ................................        ........",
"                ........        ........                ........",
"                ........        ........                ........",
"                ........        ........                ........",
"                ........        ........                ........",
"                ........        ........                ........",
"                ........        ........                ........",
"                ........        ........                ........",
"                ........        ........                ........",
"                ................................        ........",
"                ................................        ........",
"                ................................        ........",
"                ................................        ........",
"                ................................        ........",
"                ................................        ........",
"                ................................        ........",
"                ................................        ........",
"        ........        ........        ........        ........",
"        ........        ........        ........        ........",
"        ........        ........        ........        ........",
"        ........        ........        ........        ........",
"        ........        ........        ........        ........",
"        ........        ........        ........        ........",
"        ........        ........        ........        ........",
"        ........        ........        ........        ........",
"........                                        ................",
"........                                        ................",
"........                                        ................",
"........                                        ................",
"........                                        ................",
"........                                        ................",
"........                                        ................",
"........                                        ................",
"................        ................                ........",
"................        ................                ........",
"................        ................                ........",
"................        ................                ........",
"................        ................                ........",
"................        ................                ........",
"................        ................                ........",
"................        ................                ........",
"                ................................                ",
"                ................................                ",
"                ................................                ",
"                ................................                ",
"                ................................                ",
"                ................................                ",
"                ................................                ",
"                ................................                ",
"                ........                ........                ",
"                ........                ........                ",
"                ........                ........                ",
"                ........                ........                ",
"                ........                ........                ",
"                ........                ........                ",
"                ........                ........                ",
"                ........                ........                "
};
