/* XPM */
static char *_5366_2273c4c1a2524e417d8356ca632bfc32109fdcc948f67bcfdd83b6d566591845[] = {
/* columns rows colors chars-per-pixel */
"64 64 2 1 ",
"  c black",
". c white",
/* pixels */
"................................................................",
"................................................................",
"................................................................",
"................................................................",
"................................................................",
"................................................................",
"................................................................",
"................................................................",
"........                                                ........",
"........                                                ........",
"........                                                ........",
"........                                                ........",
"........                                                ........",
"........                                                ........",
"........                                                ........",
"........                                                ........",
"........        ................                        ........",
"........        ................                        ........",
"........        ................                        ........",
"........        ................                        ........",
"........        ................                        ........",
"........        ................                        ........",
"........        ................                        ........",
"........        ................                        ........",
"........        ................                        ........",
"........        ................                        ........",
"........        ................                        ........",
"........        ................                        ........",
"........        ................                        ........",
"........        ................                        ........",
"........        ................                        ........",
"........        ................                        ........",
"........        ................        ........        ........",
"........        ................        ........        ........",
"........        ................        ........        ........",
"........        ................        ........        ........",
"........        ................        ........        ........",
"........        ................        ........        ........",
"........        ................        ........        ........",
"........        ................        ........        ........",
"........        ................        ........        ........",
"........        ................        ........        ........",
"........        ................        ........        ........",
"........        ................        ........        ........",
"........        ................        ........        ........",
"........        ................        ........        ........",
"........        ................        ........        ........",
"........        ................        ........        ........",
"........                                                ........",
"........                                                ........",
"........                                                ........",
"........                                                ........",
"........                                                ........",
"........                                                ........",
"........                                                ........",
"........                                                ........",
"................................................................",
"................................................................",
"................................................................",
"................................................................",
"................................................................",
"................................................................",
"................................................................",
"................................................................"
};
