/* XPM */
static char *_a594a3882f847fbd6fc75a52b6dcaa2Gd1CyFVGtCh0zXZq[] = {
/* columns rows colors chars-per-pixel */
"64 64 2 1 ",
"  c black",
". c white",
/* pixels */
"                ........                                        ",
"                ........                                        ",
"                ........                                        ",
"                ........                                        ",
"                ........                                        ",
"                ........                                        ",
"                ........                                        ",
"                ........                                        ",
"                        ........                                ",
"                        ........                                ",
"                        ........                                ",
"                        ........                                ",
"                        ........                                ",
"                        ........                                ",
"                        ........                                ",
"                        ........                                ",
"                ................................        ........",
"                ................................        ........",
"                ................................        ........",
"                ................................        ........",
"                ................................        ........",
"                ................................        ........",
"                ................................        ........",
"                ................................        ........",
"                ........                                ........",
"                ........                                ........",
"                ........                                ........",
"                ........                                ........",
"                ........                                ........",
"                ........                                ........",
"                ........                                ........",
"                ........                                ........",
"                ................        ........        ........",
"                ................        ........        ........",
"                ................        ........        ........",
"                ................        ........        ........",
"                ................        ........        ........",
"                ................        ........        ........",
"                ................        ........        ........",
"                ................        ........        ........",
"................        ........................................",
"................        ........................................",
"................        ........................................",
"................        ........................................",
"................        ........................................",
"................        ........................................",
"................        ........................................",
"................        ........................................",
"................        ........................        ........",
"................        ........................        ........",
"................        ........................        ........",
"................        ........................        ........",
"................        ........................        ........",
"................        ........................        ........",
"................        ........................        ........",
"................        ........................        ........",
"                ........                ........                ",
"                ........                ........                ",
"                ........                ........                ",
"                ........                ........                ",
"                ........                ........                ",
"                ........                ........                ",
"                ........                ........                ",
"                ........                ........                "
};
