/* XPM */
static char *e85c28a3068d4d9fa0573a007217ec6crCVmFHzeBSYRLD4q[] = {
/* columns rows colors chars-per-pixel */
"64 64 2 1 ",
"  c black",
". c white",
/* pixels */
"                ........                                        ",
"                ........                                        ",
"                ........                                        ",
"                ........                                        ",
"                ........                                        ",
"                ........                                        ",
"                ........                                        ",
"                ........                                        ",
"                        ........                        ........",
"                        ........                        ........",
"                        ........                        ........",
"                        ........                        ........",
"                        ........                        ........",
"                        ........                        ........",
"                        ........                        ........",
"                        ........                        ........",
"                ................................        ........",
"                ................................        ........",
"                ................................        ........",
"                ................................        ........",
"                ................................        ........",
"                ................................        ........",
"                ................................        ........",
"                ................................        ........",
"                ........                                ........",
"                ........                                ........",
"                ........                                ........",
"                ........                                ........",
"                ........                                ........",
"                ........                                ........",
"                ........                                ........",
"                ........                                ........",
"................................        ........................",
"................................        ........................",
"................................        ........................",
"................................        ........................",
"................................        ........................",
"................................        ........................",
"................................        ........................",
"................................        ........................",
"................        ........................        ........",
"................        ........................        ........",
"................        ........................        ........",
"................        ........................        ........",
"................        ........................        ........",
"................        ........................        ........",
"................        ........................        ........",
"................        ........................        ........",
"                ................................                ",
"                ................................                ",
"                ................................                ",
"                ................................                ",
"                ................................                ",
"                ................................                ",
"                ................................                ",
"                ................................                ",
"                ........                ........                ",
"                ........                ........                ",
"                ........                ........                ",
"                ........                ........                ",
"                ........                ........                ",
"                ........                ........                ",
"                ........                ........                ",
"                ........                ........                "
};
