/* XPM */
static char *_fa89935da0143c6bb6cc528a37d759226Fm6lAT1FtvDEnE[] = {
/* columns rows colors chars-per-pixel */
"64 64 2 1 ",
"  c black",
". c white",
/* pixels */
"                ........                                        ",
"                ........                                        ",
"                ........                                        ",
"                ........                                        ",
"                ........                                        ",
"                ........                                        ",
"                ........                                        ",
"                ........                                        ",
"                        ........                        ........",
"                        ........                        ........",
"                        ........                        ........",
"                        ........                        ........",
"                        ........                        ........",
"                        ........                        ........",
"                        ........                        ........",
"                        ........                        ........",
"                ................................        ........",
"                ................................        ........",
"                ................................        ........",
"                ................................        ........",
"                ................................        ........",
"                ................................        ........",
"                ................................        ........",
"                ................................        ........",
"                ........                                ........",
"                ........                                ........",
"                ........                                ........",
"                ........                                ........",
"                ........                                ........",
"                ........                                ........",
"                ........                                ........",
"                ........                                ........",
"................................        ........................",
"................................        ........................",
"................................        ........................",
"................................        ........................",
"................................        ........................",
"................................        ........................",
"................................        ........................",
"................................        ........................",
"................        ........................        ........",
"................        ........................        ........",
"................        ........................        ........",
"................        ........................        ........",
"................        ........................        ........",
"................        ........................        ........",
"................        ........................        ........",
"................        ........................        ........",
"                ................................                ",
"                ................................                ",
"                ................................                ",
"                ................................                ",
"                ................................                ",
"                ................................                ",
"                ................................                ",
"                ................................                ",
"                ........                ........                ",
"                ........                ........                ",
"                ........                ........                ",
"                ........                ........                ",
"                ........                ........                ",
"                ........                ........                ",
"                ........                ........                ",
"                ........                ........                "
};
