/* XPM */
static char *_a5d9d9254854af9e11f37e6f2cdf9ed75QNLRTykQtIaVjA[] = {
/* columns rows colors chars-per-pixel */
"64 64 2 1 ",
"  c black",
". c white",
/* pixels */
"                ........                                        ",
"                ........                                        ",
"                ........                                        ",
"                ........                                        ",
"                ........                                        ",
"                ........                                        ",
"                ........                                        ",
"                ........                                        ",
"                        ........                                ",
"                        ........                                ",
"                        ........                                ",
"                        ........                                ",
"                        ........                                ",
"                        ........                                ",
"                        ........                                ",
"                        ........                                ",
"                ................................        ........",
"                ................................        ........",
"                ................................        ........",
"                ................................        ........",
"                ................................        ........",
"                ................................        ........",
"                ................................        ........",
"                ................................        ........",
"                ........                                ........",
"                ........                                ........",
"                ........                                ........",
"                ........                                ........",
"                ........                                ........",
"                ........                                ........",
"                ........                                ........",
"                ........                                ........",
"                ................        ........        ........",
"                ................        ........        ........",
"                ................        ........        ........",
"                ................        ........        ........",
"                ................        ........        ........",
"                ................        ........        ........",
"                ................        ........        ........",
"                ................        ........        ........",
"................        ........................................",
"................        ........................................",
"................        ........................................",
"................        ........................................",
"................        ........................................",
"................        ........................................",
"................        ........................................",
"................        ........................................",
"................        ........................        ........",
"................        ........................        ........",
"................        ........................        ........",
"................        ........................        ........",
"................        ........................        ........",
"................        ........................        ........",
"................        ........................        ........",
"................        ........................        ........",
"                ........                ........                ",
"                ........                ........                ",
"                ........                ........                ",
"                ........                ........                ",
"                ........                ........                ",
"                ........                ........                ",
"                ........                ........                ",
"                ........                ........                "
};
