/* XPM */
static char *_681621a79b14a6fab9f872d9a943821ZHhjeBCJaXGQNMAl[] = {
/* columns rows colors chars-per-pixel */
"64 64 2 1 ",
"  c black",
". c white",
/* pixels */
"                                        ........                ",
"                                        ........                ",
"                                        ........                ",
"                                        ........                ",
"                                        ........                ",
"                                        ........                ",
"                                        ........                ",
"                                        ........                ",
"                                ........                        ",
"                                ........                        ",
"                                ........                        ",
"                                ........                        ",
"                                ........                        ",
"                                ........                        ",
"                                ........                        ",
"                                ........                        ",
"........        ................................                ",
"........        ................................                ",
"........        ................................                ",
"........        ................................                ",
"........        ................................                ",
"........        ................................                ",
"........        ................................                ",
"........        ................................                ",
"........                                ........                ",
"........                                ........                ",
"........                                ........                ",
"........                                ........                ",
"........                                ........                ",
"........                                ........                ",
"........                                ........                ",
"........                                ........                ",
"........        ........        ................                ",
"........        ........        ................                ",
"........        ........        ................                ",
"........        ........        ................                ",
"........        ........        ................                ",
"........        ........        ................                ",
"........        ........        ................                ",
"........        ........        ................                ",
"........................................        ................",
"........................................        ................",
"........................................        ................",
"........................................        ................",
"........................................        ................",
"........................................        ................",
"........................................        ................",
"........................................        ................",
"........        ........................        ................",
"........        ........................        ................",
"........        ........................        ................",
"........        ........................        ................",
"........        ........................        ................",
"........        ........................        ................",
"........        ........................        ................",
"........        ........................        ................",
"                ........                ........                ",
"                ........                ........                ",
"                ........                ........                ",
"                ........                ........                ",
"                ........                ........                ",
"                ........                ........                ",
"                ........                ........                ",
"                ........                ........                "
};
