/* XPM */
static char *_60dbd957c5e4b38a1add6015477716eh7SNkIMwRTeRS3Ur[] = {
/* columns rows colors chars-per-pixel */
"64 64 2 1 ",
"  c black",
". c white",
/* pixels */
"                ................                                ",
"                ................                                ",
"                ................                                ",
"                ................                                ",
"                ................                                ",
"                ................                                ",
"                ................                                ",
"                ................                                ",
"                ................................        ........",
"                ................................        ........",
"                ................................        ........",
"                ................................        ........",
"                ................................        ........",
"                ................................        ........",
"                ................................        ........",
"                ................................        ........",
"                ........                                ........",
"                ........                                ........",
"                ........                                ........",
"                ........                                ........",
"                ........                                ........",
"                ........                                ........",
"                ........                                ........",
"                ........                                ........",
"                ................        ........        ........",
"                ................        ........        ........",
"                ................        ........        ........",
"                ................        ........        ........",
"                ................        ........        ........",
"                ................        ........        ........",
"                ................        ........        ........",
"                ................        ........        ........",
"................        ........................................",
"................        ........................................",
"................        ........................................",
"................        ........................................",
"................        ........................................",
"................        ........................................",
"................        ........................................",
"................        ........................................",
"................................................        ........",
"................................................        ........",
"................................................        ........",
"................................................        ........",
"................................................        ........",
"................................................        ........",
"................................................        ........",
"................................................        ........",
"                ........                ........                ",
"                ........                ........                ",
"                ........                ........                ",
"                ........                ........                ",
"                ........                ........                ",
"                ........                ........                ",
"                ........                ........                ",
"                ........                ........                ",
"                ........                ........                ",
"                ........                ........                ",
"                ........                ........                ",
"                ........                ........                ",
"                ........                ........                ",
"                ........                ........                ",
"                ........                ........                ",
"                ........                ........                "
};
