/* XPM */
static char *_f3a995fb0784805ff7aebb0a8286a34GFji3FYYaSeprveJ[] = {
/* columns rows colors chars-per-pixel */
"64 64 2 1 ",
"  c black",
". c white",
/* pixels */
"                                ................                ",
"                                ................                ",
"                                ................                ",
"                                ................                ",
"                                ................                ",
"                                ................                ",
"                                ................                ",
"                                ................                ",
"........        ................................                ",
"........        ................................                ",
"........        ................................                ",
"........        ................................                ",
"........        ................................                ",
"........        ................................                ",
"........        ................................                ",
"........        ................................                ",
"........                                ........                ",
"........                                ........                ",
"........                                ........                ",
"........                                ........                ",
"........                                ........                ",
"........                                ........                ",
"........                                ........                ",
"........                                ........                ",
"........        ........        ................                ",
"........        ........        ................                ",
"........        ........        ................                ",
"........        ........        ................                ",
"........        ........        ................                ",
"........        ........        ................                ",
"........        ........        ................                ",
"........        ........        ................                ",
"........................................        ................",
"........................................        ................",
"........................................        ................",
"........................................        ................",
"........................................        ................",
"........................................        ................",
"........................................        ................",
"........................................        ................",
"........        ................................................",
"........        ................................................",
"........        ................................................",
"........        ................................................",
"........        ................................................",
"........        ................................................",
"........        ................................................",
"........        ................................................",
"                ........                ........                ",
"                ........                ........                ",
"                ........                ........                ",
"                ........                ........                ",
"                ........                ........                ",
"                ........                ........                ",
"                ........                ........                ",
"                ........                ........                ",
"                ........                ........                ",
"                ........                ........                ",
"                ........                ........                ",
"                ........                ........                ",
"                ........                ........                ",
"                ........                ........                ",
"                ........                ........                ",
"                ........                ........                "
};
