/* XPM */
static char *_ffde618cfc64c3bc122fe38653f6982ijBlm9HzqrEe6rfY[] = {
/* columns rows colors chars-per-pixel */
"64 64 2 1 ",
"  c black",
". c white",
/* pixels */
"                                        ........                ",
"                                        ........                ",
"                                        ........                ",
"                                        ........                ",
"                                        ........                ",
"                                        ........                ",
"                                        ........                ",
"                                        ........                ",
"........                        ........                        ",
"........                        ........                        ",
"........                        ........                        ",
"........                        ........                        ",
"........                        ........                        ",
"........                        ........                        ",
"........                        ........                        ",
"........                        ........                        ",
"........        ................................                ",
"........        ................................                ",
"........        ................................                ",
"........        ................................                ",
"........        ................................                ",
"........        ................................                ",
"........        ................................                ",
"........        ................................                ",
"........                                ........                ",
"........                                ........                ",
"........                                ........                ",
"........                                ........                ",
"........                                ........                ",
"........                                ........                ",
"........                                ........                ",
"........                                ........                ",
"........................        ................................",
"........................        ................................",
"........................        ................................",
"........................        ................................",
"........................        ................................",
"........................        ................................",
"........................        ................................",
"........................        ................................",
"........        ........................        ................",
"........        ........................        ................",
"........        ........................        ................",
"........        ........................        ................",
"........        ........................        ................",
"........        ........................        ................",
"........        ........................        ................",
"........        ........................        ................",
"                ................................                ",
"                ................................                ",
"                ................................                ",
"                ................................                ",
"                ................................                ",
"                ................................                ",
"                ................................                ",
"                ................................                ",
"                ........                ........                ",
"                ........                ........                ",
"                ........                ........                ",
"                ........                ........                ",
"                ........                ........                ",
"                ........                ........                ",
"                ........                ........                ",
"                ........                ........                "
};
