/* XPM */
static char *_bda2b2be4c44b689b11050651ebeb00Tcou7rQL5X2be5E0[] = {
/* columns rows colors chars-per-pixel */
"64 64 2 1 ",
"  c black",
". c white",
/* pixels */
"        ................................................        ",
"        ................................................        ",
"        ................................................        ",
"        ................................................        ",
"        ................................................        ",
"        ................................................        ",
"        ................................................        ",
"        ................................................        ",
"........        ................................        ........",
"........        ................................        ........",
"........        ................................        ........",
"........        ................................        ........",
"........        ................................        ........",
"........        ................................        ........",
"........        ................................        ........",
"........        ................................        ........",
"................                                ................",
"................                                ................",
"................                                ................",
"................                                ................",
"................                                ................",
"................                                ................",
"................                                ................",
"................                                ................",
"................        ................        ................",
"................        ................        ................",
"................        ................        ................",
"................        ................        ................",
"................        ................        ................",
"................        ................        ................",
"................        ................        ................",
"................        ................        ................",
"................        ................        ................",
"................        ................        ................",
"................        ................        ................",
"................        ................        ................",
"................        ................        ................",
"................        ................        ................",
"................        ................        ................",
"................        ................        ................",
"................                                ................",
"................                                ................",
"................                                ................",
"................                                ................",
"................                                ................",
"................                                ................",
"................                                ................",
"................                                ................",
"........        ................................        ........",
"........        ................................        ........",
"........        ................................        ........",
"........        ................................        ........",
"........        ................................        ........",
"........        ................................        ........",
"........        ................................        ........",
"........        ................................        ........",
"        ................................................        ",
"        ................................................        ",
"        ................................................        ",
"        ................................................        ",
"        ................................................        ",
"        ................................................        ",
"        ................................................        ",
"        ................................................        "
};
